<?xml version="1.0" encoding="utf-8"?>
<!-- Generator: Adobe Illustrator 18.0.0, SVG Export Plug-In . SVG Version: 6.00 Build 0)  -->
<!DOCTYPE svg PUBLIC "-//W3C//DTD SVG 1.1//EN" "http://www.w3.org/Graphics/SVG/1.1/DTD/svg11.dtd">
<svg version="1.1" id="Layer_1" xmlns="http://www.w3.org/2000/svg" xmlns:xlink="http://www.w3.org/1999/xlink" x="0px" y="0px"
	 viewBox="0 0 512 512" enable-background="new 0 0 512 512" xml:space="preserve">
<g>
	<g>
		<g>
			<path d="M483.8,483.7c-31.4,0-62.8,0-94.2,0c-63.8,0-127.5,0-191.3,0c-50.5,0-101.1,0-151.6,0c-6.3,0-12.6,0-18.9,0
				c2.5,2.5,5,5,7.5,7.5c0-18.9,0-37.7,0-56.6c-2.5,2.5-5,5-7.5,7.5c31.4,0,62.8,0,94.2,0c63.8,0,127.5,0,191.3,0
				c50.5,0,101.1,0,151.6,0c6.3,0,12.6,0,18.9,0c-2.5-2.5-5-5-7.5-7.5c0,18.9,0,37.7,0,56.6c0,9.7,15,9.7,15,0c0-18.9,0-37.7,0-56.6
				c0-4.1-3.4-7.5-7.5-7.5c-31.4,0-62.8,0-94.2,0c-63.8,0-127.5,0-191.3,0c-50.5,0-101.1,0-151.6,0c-6.3,0-12.6,0-18.9,0
				c-4.1,0-7.5,3.4-7.5,7.5c0,18.9,0,37.7,0,56.6c0,4.1,3.4,7.5,7.5,7.5c31.4,0,62.8,0,94.2,0c63.8,0,127.5,0,191.3,0
				c50.5,0,101.1,0,151.6,0c6.3,0,12.6,0,18.9,0C493.5,498.7,493.5,483.7,483.8,483.7z"/>
		</g>
	</g>
	<g>
		<g>
			<path d="M465.7,434.6c0-44,0-88.1,0-132.1c0-46.3,0-92.6,0-138.9c0-0.1,0-0.2,0-0.2c0-9.7-15-9.7-15,0c0,44,0,88.1,0,132.1
				c0,46.3,0,92.6,0,138.9c0,0.1,0,0.2,0,0.2C450.7,444.2,465.7,444.2,465.7,434.6L465.7,434.6z"/>
		</g>
	</g>
	<g>
		<g>
			<path d="M58.8,397.7c0-47,0-94,0-141c0-31.1,0-62.3,0-93.4c0-9.7-15-9.7-15,0c0,47,0,94,0,141c0,31.1,0,62.3,0,93.4
				C43.8,407.4,58.8,407.4,58.8,397.7L58.8,397.7z"/>
		</g>
	</g>
	<g>
		<g>
			<path d="M123.7,155.8c-32,0-63.9,0-95.9,0c2.5,2.5,5,5,7.5,7.5c0-37.1,0-74.2,0-111.2c-2.5,2.5-5,5-7.5,7.5
				c49.3,0,98.6,0,147.9,0c17.5,0,35,0,52.6,0c9.7,0,9.7-15,0-15c-49.3,0-98.6,0-147.9,0c-17.5,0-35,0-52.6,0
				c-4.1,0-7.5,3.4-7.5,7.5c0,37.1,0,74.2,0,111.2c0,4.1,3.4,7.5,7.5,7.5c32,0,63.9,0,95.9,0C133.4,170.8,133.4,155.8,123.7,155.8
				L123.7,155.8z"/>
		</g>
	</g>
	<g>
		<g>
			<path d="M286.3,59.6c49.5,0,98.9,0,148.4,0c16.5,0,33,0,49.5,0c-2.5-2.5-5-5-7.5-7.5c0,37.1,0,74.2,0,111.2c2.5-2.5,5-5,7.5-7.5
				c-31.5,0-63.1,0-94.6,0c-9.7,0-9.7,15,0,15c31.5,0,63.1,0,94.6,0c4.1,0,7.5-3.4,7.5-7.5c0-37.1,0-74.2,0-111.2
				c0-4.1-3.4-7.5-7.5-7.5c-49.5,0-98.9,0-148.4,0c-16.5,0-33,0-49.5,0C276.6,44.6,276.6,59.6,286.3,59.6L286.3,59.6z"/>
		</g>
	</g>
	<g>
		<g>
			<g>
				<path d="M394.8,158c-33.7-36.3-67.4-72.6-101.1-109c-10.4-11.2-20.7-22.3-31.1-33.5c-2.7-2.9-7.9-2.9-10.6,0
					c-33.7,36.3-67.4,72.6-101.1,109c-10.4,11.2-20.7,22.3-31.1,33.5c-6.6,7.1,4,17.7,10.6,10.6c33.7-36.3,67.4-72.6,101.1-109
					c10.4-11.2,20.7-22.3,31.1-33.5c-3.5,0-7.1,0-10.6,0c33.7,36.3,67.4,72.6,101.1,109c10.4,11.2,20.7,22.3,31.1,33.5
					C390.8,175.7,401.4,165.1,394.8,158L394.8,158z"/>
			</g>
		</g>
	</g>
	<g>
		<g>
			<path d="M324.6,427.1c-44.9,0-89.7,0-134.6,0c0,0,0,0,0,0c2.5,2.5,5,5,7.5,7.5c0-47,0-94,0-140.9c0-31.4,0-62.8,0-94.2
				c-2.5,2.5-5,5-7.5,7.5c44.9,0,89.7,0,134.6,0c0,0,0,0,0,0c-2.5-2.5-5-5-7.5-7.5c0,47,0,94,0,140.9c0,31.4,0,62.8,0,94.2
				c0,9.7,15,9.7,15,0c0-47,0-94,0-140.9c0-31.4,0-62.8,0-94.2c0-4.1-3.4-7.5-7.5-7.5c-44.9,0-89.7,0-134.6,0c0,0,0,0,0,0
				c-4.1,0-7.5,3.4-7.5,7.5c0,47,0,94,0,140.9c0,31.4,0,62.8,0,94.2c0,4.1,3.4,7.5,7.5,7.5c44.9,0,89.7,0,134.6,0c0,0,0,0,0,0
				C334.3,442.1,334.3,427.1,324.6,427.1z"/>
		</g>
	</g>
	<g>
		<g>
			<path d="M286.9,113.5c-0.3,16.4-13.2,29.3-29.6,29.6c-16.4,0.3-29.3-13.7-29.6-29.6c-0.3-16.4,13.7-29.3,29.6-29.6
				C273.7,83.7,286.6,97.6,286.9,113.5c0.2,9.7,15.2,9.7,15,0c-0.5-24.6-20-44.1-44.6-44.6s-44.1,20.7-44.6,44.6
				c-0.5,24.6,20.7,44.1,44.6,44.6c24.6,0.5,44.1-20.7,44.6-44.6C302,103.9,287,103.9,286.9,113.5z"/>
		</g>
	</g>
	<g>
		<g>
			<path d="M147.9,341.2c-24.1,0-48.1,0-72.2,0c2.5,2.5,5,5,7.5,7.5c0-33.2,0-66.4,0-99.5c-2.5,2.5-5,5-7.5,7.5
				c24.1,0,48.1,0,72.2,0c-2.5-2.5-5-5-7.5-7.5c0,33.2,0,66.4,0,99.5c0,9.7,15,9.7,15,0c0-33.2,0-66.4,0-99.5c0-4.1-3.4-7.5-7.5-7.5
				c-24.1,0-48.1,0-72.2,0c-4.1,0-7.5,3.4-7.5,7.5c0,33.2,0,66.4,0,99.5c0,4.1,3.4,7.5,7.5,7.5c24.1,0,48.1,0,72.2,0
				C157.5,356.2,157.5,341.2,147.9,341.2z"/>
		</g>
	</g>
	<g>
		<g>
			<path d="M433.8,341.2c-24.1,0-48.1,0-72.2,0c2.5,2.5,5,5,7.5,7.5c0-33.2,0-66.4,0-99.5c-2.5,2.5-5,5-7.5,7.5
				c24.1,0,48.1,0,72.2,0c-2.5-2.5-5-5-7.5-7.5c0,33.2,0,66.4,0,99.5c0,9.7,15,9.7,15,0c0-33.2,0-66.4,0-99.5c0-4.1-3.4-7.5-7.5-7.5
				c-24.1,0-48.1,0-72.2,0c-4.1,0-7.5,3.4-7.5,7.5c0,33.2,0,66.4,0,99.5c0,4.1,3.4,7.5,7.5,7.5c24.1,0,48.1,0,72.2,0
				C443.4,356.2,443.4,341.2,433.8,341.2z"/>
		</g>
	</g>
	<g>
		<g>
			<g>
				<path d="M39.2,432.6c-5.7-18.4,13-35.1,30.5-25.7c8.5,4.6,16.1-8.4,7.6-13c-13.9-7.5-29.6-5.7-41.8,4.1
					c-11.3,9-14.9,25.2-10.8,38.6C27.6,445.8,42,441.8,39.2,432.6L39.2,432.6z"/>
			</g>
		</g>
		<g>
			<g>
				<path d="M80.7,402.4c6.7-16.4,26.6-24.3,42.7-17c17.3,7.8,23.8,29,14.6,45.4c-4.7,8.4,8.2,16,13,7.6
					c13.2-23.6,4.5-53.9-19.9-65.9c-25.2-12.5-54.5,0.7-64.8,26c-1.5,3.8,1.6,8.2,5.2,9.2C75.8,408.8,79.2,406.2,80.7,402.4
					L80.7,402.4z"/>
			</g>
		</g>
	</g>
</g>
</svg>
