<svg width="300" height="181" viewBox="0 0 300 181" fill="none" xmlns="http://www.w3.org/2000/svg">
<path d="M119.492 92.3703C113.359 92.3703 107.227 92.3703 101.094 92.3703C88.6328 92.3703 76.1914 92.3703 63.7305 92.3703C53.8672 92.3703 43.9844 92.3703 34.1211 92.3703C32.8906 92.3703 31.6602 92.3703 30.4297 92.3703C30.918 92.8586 31.4062 93.3469 31.8945 93.8352C31.8945 90.1438 31.8945 86.4719 31.8945 82.7805C31.4062 83.2687 30.918 83.757 30.4297 84.2453C36.5625 84.2453 42.6953 84.2453 48.8281 84.2453C61.2891 84.2453 73.7305 84.2453 86.1914 84.2453C96.0547 84.2453 105.938 84.2453 115.801 84.2453C117.031 84.2453 118.262 84.2453 119.492 84.2453C119.004 83.757 118.516 83.2687 118.027 82.7805C118.027 86.4719 118.027 90.1438 118.027 93.8352C118.027 95.7297 120.957 95.7297 120.957 93.8352C120.957 90.1438 120.957 86.4719 120.957 82.7805C120.957 81.9797 120.293 81.3156 119.492 81.3156C113.359 81.3156 107.227 81.3156 101.094 81.3156C88.6328 81.3156 76.1914 81.3156 63.7305 81.3156C53.8672 81.3156 43.9844 81.3156 34.1211 81.3156C32.8906 81.3156 31.6602 81.3156 30.4297 81.3156C29.6289 81.3156 28.9648 81.9797 28.9648 82.7805C28.9648 86.4719 28.9648 90.1438 28.9648 93.8352C28.9648 94.636 29.6289 95.3 30.4297 95.3C36.5625 95.3 42.6953 95.3 48.8281 95.3C61.2891 95.3 73.7305 95.3 86.1914 95.3C96.0547 95.3 105.938 95.3 115.801 95.3C117.031 95.3 118.262 95.3 119.492 95.3C121.387 95.3 121.387 92.3703 119.492 92.3703Z" fill="black"/>
<path d="M115.957 82.7805C115.957 74.1867 115.957 65.5734 115.957 56.9796C115.957 47.9366 115.957 38.8936 115.957 29.8507C115.957 29.8311 115.957 29.8116 115.957 29.8116C115.957 27.9171 113.027 27.9171 113.027 29.8116C113.027 38.4054 113.027 47.0187 113.027 55.6124C113.027 64.6554 113.027 73.6984 113.027 82.7414C113.027 82.7609 113.027 82.7805 113.027 82.7805C113.027 84.6555 115.957 84.6555 115.957 82.7805Z" fill="black"/>
<path d="M36.4844 75.5734C36.4844 66.3937 36.4844 57.214 36.4844 48.0343C36.4844 41.9601 36.4844 35.8663 36.4844 29.7921C36.4844 27.8975 33.5547 27.8975 33.5547 29.7921C33.5547 38.9718 33.5547 48.1515 33.5547 57.3312C33.5547 63.4054 33.5547 69.4992 33.5547 75.5734C33.5547 77.4679 36.4844 77.4679 36.4844 75.5734Z" fill="black"/>
<path d="M49.1602 28.3272C42.9102 28.3272 36.6797 28.3272 30.4297 28.3272C30.918 28.8155 31.4062 29.3038 31.8945 29.792C31.8945 22.5459 31.8945 15.2998 31.8945 8.07325C31.4062 8.56153 30.918 9.04981 30.4297 9.53809C40.0586 9.53809 49.6875 9.53809 59.3164 9.53809C62.7344 9.53809 66.1523 9.53809 69.5898 9.53809C71.4844 9.53809 71.4844 6.6084 69.5898 6.6084C59.9609 6.6084 50.332 6.6084 40.7031 6.6084C37.2852 6.6084 33.8672 6.6084 30.4297 6.6084C29.6289 6.6084 28.9648 7.27246 28.9648 8.07325C28.9648 15.3194 28.9648 22.5655 28.9648 29.792C28.9648 30.5928 29.6289 31.2569 30.4297 31.2569C36.6797 31.2569 42.9102 31.2569 49.1602 31.2569C51.0547 31.2569 51.0547 28.3272 49.1602 28.3272Z" fill="black"/>
<path d="M80.918 9.53809C90.5859 9.53809 100.234 9.53809 109.902 9.53809C113.125 9.53809 116.348 9.53809 119.57 9.53809C119.082 9.04981 118.594 8.56153 118.105 8.07325C118.105 15.3194 118.105 22.5655 118.105 29.792C118.594 29.3038 119.082 28.8155 119.57 28.3272C113.418 28.3272 107.246 28.3272 101.094 28.3272C99.1992 28.3272 99.1992 31.2569 101.094 31.2569C107.246 31.2569 113.418 31.2569 119.57 31.2569C120.371 31.2569 121.035 30.5928 121.035 29.792C121.035 22.5459 121.035 15.2998 121.035 8.07325C121.035 7.27246 120.371 6.6084 119.57 6.6084C109.902 6.6084 100.254 6.6084 90.5859 6.6084C87.3633 6.6084 84.1406 6.6084 80.918 6.6084C79.0234 6.6084 79.0234 9.53809 80.918 9.53809Z" fill="black"/>
<path d="M102.109 28.7569C95.5273 21.667 88.9453 14.5772 82.3633 7.46779C80.332 5.28028 78.3203 3.11231 76.2891 0.924806C75.7617 0.358398 74.7461 0.358398 74.2187 0.924806C67.6367 8.01466 61.0547 15.1045 54.4726 22.2139C52.4414 24.4014 50.4297 26.5694 48.3984 28.7569C47.1094 30.1436 49.1797 32.2139 50.4687 30.8272C57.0508 23.7374 63.6328 16.6475 70.2148 9.5381C72.2461 7.3506 74.2578 5.18263 76.2891 2.99512C75.6055 2.99512 74.9023 2.99512 74.2187 2.99512C80.8008 10.085 87.3828 17.1748 93.9648 24.2842C95.9961 26.4717 98.0078 28.6397 100.039 30.8272C101.328 32.2139 103.398 30.1436 102.109 28.7569Z" fill="black"/>
<path d="M88.3984 81.3156C79.6289 81.3156 70.8789 81.3156 62.1094 81.3156C62.5977 81.8039 63.0859 82.2922 63.5742 82.7804C63.5742 73.6007 63.5742 64.421 63.5742 55.2608C63.5742 49.128 63.5742 42.9952 63.5742 36.8624C63.0859 37.3507 62.5977 37.8389 62.1094 38.3272C70.8789 38.3272 79.6289 38.3272 88.3984 38.3272C87.9102 37.8389 87.4219 37.3507 86.9336 36.8624C86.9336 46.0421 86.9336 55.2218 86.9336 64.382C86.9336 70.5148 86.9336 76.6476 86.9336 82.7804C86.9336 84.675 89.8633 84.675 89.8633 82.7804C89.8633 73.6007 89.8633 64.421 89.8633 55.2608C89.8633 49.128 89.8633 42.9952 89.8633 36.8624C89.8633 36.0616 89.1992 35.3975 88.3984 35.3975C79.6289 35.3975 70.8789 35.3975 62.1094 35.3975C61.3086 35.3975 60.6445 36.0616 60.6445 36.8624C60.6445 46.0421 60.6445 55.2218 60.6445 64.382C60.6445 70.5148 60.6445 76.6476 60.6445 82.7804C60.6445 83.5812 61.3086 84.2453 62.1094 84.2453C70.8789 84.2453 79.6289 84.2453 88.3984 84.2453C90.293 84.2453 90.293 81.3156 88.3984 81.3156Z" fill="black"/>
<path d="M81.0352 20.0655C80.9766 23.2686 78.457 25.7882 75.2539 25.8468C72.0508 25.9053 69.5312 23.171 69.4727 20.0655C69.4141 16.8624 72.1484 14.3428 75.2539 14.2842C78.457 14.2452 80.9766 16.96 81.0352 20.0655C81.0742 21.96 84.0039 21.96 83.9648 20.0655C83.8672 15.2608 80.0586 11.4522 75.2539 11.3545C70.4492 11.2569 66.6406 15.3975 66.543 20.0655C66.4453 24.8702 70.5859 28.6788 75.2539 28.7764C80.0586 28.8741 83.8672 24.7335 83.9648 20.0655C83.9844 18.1905 81.0547 18.1905 81.0352 20.0655Z" fill="black"/>
<path d="M53.8867 64.5382C49.1797 64.5382 44.4922 64.5382 39.7852 64.5382C40.2734 65.0265 40.7617 65.5148 41.25 66.003C41.25 59.5186 41.25 53.0343 41.25 46.5694C40.7617 47.0577 40.2734 47.546 39.7852 48.0343C44.4922 48.0343 49.1797 48.0343 53.8867 48.0343C53.3984 47.546 52.9102 47.0577 52.4219 46.5694C52.4219 53.0538 52.4219 59.5382 52.4219 66.003C52.4219 67.8976 55.3516 67.8976 55.3516 66.003C55.3516 59.5186 55.3516 53.0343 55.3516 46.5694C55.3516 45.7686 54.6875 45.1046 53.8867 45.1046C49.1797 45.1046 44.4922 45.1046 39.7852 45.1046C38.9844 45.1046 38.3203 45.7686 38.3203 46.5694C38.3203 53.0538 38.3203 59.5382 38.3203 66.003C38.3203 66.8038 38.9844 67.4679 39.7852 67.4679C44.4922 67.4679 49.1797 67.4679 53.8867 67.4679C55.7617 67.4679 55.7617 64.5382 53.8867 64.5382Z" fill="black"/>
<path d="M109.727 64.5382C105.02 64.5382 100.332 64.5382 95.625 64.5382C96.1133 65.0265 96.6016 65.5148 97.0898 66.003C97.0898 59.5186 97.0898 53.0343 97.0898 46.5694C96.6016 47.0577 96.1133 47.546 95.625 48.0343C100.332 48.0343 105.02 48.0343 109.727 48.0343C109.238 47.546 108.75 47.0577 108.262 46.5694C108.262 53.0538 108.262 59.5382 108.262 66.003C108.262 67.8976 111.191 67.8976 111.191 66.003C111.191 59.5186 111.191 53.0343 111.191 46.5694C111.191 45.7686 110.527 45.1046 109.727 45.1046C105.02 45.1046 100.332 45.1046 95.625 45.1046C94.8242 45.1046 94.1602 45.7686 94.1602 46.5694C94.1602 53.0538 94.1602 59.5382 94.1602 66.003C94.1602 66.8038 94.8242 67.4679 95.625 67.4679C100.332 67.4679 105.02 67.4679 109.727 67.4679C111.602 67.4679 111.602 64.5382 109.727 64.5382Z" fill="black"/>
<path d="M32.6562 82.3898C31.543 78.796 35.1953 75.5343 38.6133 77.3703C40.2734 78.2687 41.7578 75.7296 40.0976 74.8312C37.3828 73.3663 34.3164 73.7179 31.9336 75.632C29.7265 77.3898 29.0234 80.5539 29.8242 83.171C30.3906 84.9679 33.2031 84.1867 32.6562 82.3898Z" fill="black"/>
<path d="M40.7617 76.4913C42.0703 73.2882 45.957 71.7452 49.1016 73.171C52.4805 74.6945 53.75 78.8351 51.9531 82.0382C51.0352 83.6789 53.5547 85.1632 54.4922 83.5226C57.0703 78.9132 55.3711 72.9952 50.6055 70.6515C45.6836 68.2101 39.9609 70.7882 37.9492 75.7296C37.6563 76.4718 38.2617 77.3312 38.9648 77.5265C39.8047 77.7413 40.4688 77.2335 40.7617 76.4913Z" fill="black"/>
<path d="M16.5234 106.961V127H18.7061V133.768H17.2412V128.377H1.66992V133.768H0.205078V127H1.75781C2.50977 125.711 3.20312 124.251 3.83789 122.621C4.48242 120.98 5.05371 119.261 5.55176 117.464C6.0498 115.667 6.4502 113.871 6.75293 112.074C7.06543 110.277 7.26074 108.573 7.33887 106.961H16.5234ZM15.0146 108.338H8.68652C8.59863 109.784 8.40332 111.336 8.10059 112.997C7.79785 114.647 7.40723 116.322 6.92871 118.021C6.45996 119.71 5.92285 121.327 5.31738 122.87C4.71191 124.413 4.06738 125.789 3.38379 127H15.0146V108.338ZM40.6348 117.64C40.6348 119.271 40.4346 120.76 40.0342 122.108C39.6338 123.456 39.0332 124.618 38.2324 125.594C37.4316 126.571 36.4307 127.328 35.2295 127.865C34.0381 128.402 32.6465 128.67 31.0547 128.67C29.4531 128.67 28.0518 128.402 26.8506 127.865C25.6494 127.328 24.6484 126.571 23.8477 125.594C23.0566 124.608 22.4609 123.441 22.0605 122.093C21.6602 120.736 21.46 119.242 21.46 117.611C21.46 115.443 21.8262 113.534 22.5586 111.883C23.3008 110.233 24.3896 108.944 25.8252 108.016C27.2705 107.088 29.0527 106.624 31.1719 106.624C33.2031 106.624 34.9219 107.069 36.3281 107.957C37.7441 108.836 38.8135 110.101 39.5361 111.751C40.2686 113.392 40.6348 115.355 40.6348 117.64ZM23.042 117.625C23.042 119.539 23.3301 121.229 23.9062 122.694C24.4824 124.149 25.3662 125.287 26.5576 126.107C27.749 126.927 29.2529 127.337 31.0693 127.337C32.9053 127.337 34.4141 126.932 35.5957 126.122C36.7773 125.311 37.6514 124.178 38.2178 122.723C38.7842 121.268 39.0674 119.574 39.0674 117.64C39.0674 114.583 38.3984 112.21 37.0605 110.521C35.7324 108.831 33.7695 107.987 31.1719 107.987C29.3457 107.987 27.8271 108.392 26.6162 109.203C25.415 110.013 24.5166 111.141 23.9209 112.586C23.335 114.032 23.042 115.711 23.042 117.625ZM45.5566 128.377V106.961H57.5244V108.324H47.0654V116.366H51.0645C52.7637 116.366 54.1602 116.576 55.2539 116.996C56.3477 117.406 57.1582 118.04 57.6855 118.9C58.2227 119.759 58.4912 120.863 58.4912 122.21C58.4912 124.222 57.9053 125.755 56.7334 126.81C55.5713 127.855 53.7988 128.377 51.416 128.377H45.5566ZM47.0654 127.044H51.1963C53.1885 127.044 54.6387 126.659 55.5469 125.887C56.4648 125.106 56.9238 123.88 56.9238 122.21C56.9238 121.048 56.6943 120.14 56.2354 119.486C55.7764 118.831 55.0928 118.372 54.1846 118.109C53.2861 117.845 52.1729 117.713 50.8447 117.713H47.0654V127.044ZM68.6865 106.961C71.2354 106.961 73.1445 107.45 74.4141 108.426C75.6836 109.403 76.3184 110.921 76.3184 112.982C76.3184 114.037 76.1475 114.974 75.8057 115.794C75.4736 116.605 74.9707 117.289 74.2969 117.845C73.623 118.402 72.7783 118.822 71.7627 119.105C70.7568 119.388 69.5801 119.53 68.2324 119.53H64.9365V128.377H63.4277V106.961H68.6865ZM68.5254 108.294H64.9365V118.197H68.0859C69.4727 118.197 70.6641 118.04 71.6602 117.728C72.6562 117.406 73.4229 116.869 73.96 116.117C74.4971 115.365 74.7656 114.339 74.7656 113.04C74.7656 111.39 74.2578 110.189 73.2422 109.437C72.2266 108.675 70.6543 108.294 68.5254 108.294ZM98.9941 117.64C98.9941 119.271 98.7939 120.76 98.3936 122.108C97.9932 123.456 97.3926 124.618 96.5918 125.594C95.791 126.571 94.79 127.328 93.5889 127.865C92.3975 128.402 91.0059 128.67 89.4141 128.67C87.8125 128.67 86.4111 128.402 85.21 127.865C84.0088 127.328 83.0078 126.571 82.207 125.594C81.416 124.608 80.8203 123.441 80.4199 122.093C80.0195 120.736 79.8193 119.242 79.8193 117.611C79.8193 115.443 80.1855 113.534 80.918 111.883C81.6602 110.233 82.749 108.944 84.1846 108.016C85.6299 107.088 87.4121 106.624 89.5312 106.624C91.5625 106.624 93.2812 107.069 94.6875 107.957C96.1035 108.836 97.1729 110.101 97.8955 111.751C98.6279 113.392 98.9941 115.355 98.9941 117.64ZM81.4014 117.625C81.4014 119.539 81.6895 121.229 82.2656 122.694C82.8418 124.149 83.7256 125.287 84.917 126.107C86.1084 126.927 87.6123 127.337 89.4287 127.337C91.2646 127.337 92.7734 126.932 93.9551 126.122C95.1367 125.311 96.0107 124.178 96.5771 122.723C97.1436 121.268 97.4268 119.574 97.4268 117.64C97.4268 114.583 96.7578 112.21 95.4199 110.521C94.0918 108.831 92.1289 107.987 89.5312 107.987C87.7051 107.987 86.1865 108.392 84.9756 109.203C83.7744 110.013 82.876 111.141 82.2803 112.586C81.6943 114.032 81.4014 115.711 81.4014 117.625ZM103.916 128.377V106.961H115.884V108.324H105.425V116.366H109.424C111.123 116.366 112.52 116.576 113.613 116.996C114.707 117.406 115.518 118.04 116.045 118.9C116.582 119.759 116.851 120.863 116.851 122.21C116.851 124.222 116.265 125.755 115.093 126.81C113.931 127.855 112.158 128.377 109.775 128.377H103.916ZM105.425 127.044H109.556C111.548 127.044 112.998 126.659 113.906 125.887C114.824 125.106 115.283 123.88 115.283 122.21C115.283 121.048 115.054 120.14 114.595 119.486C114.136 118.831 113.452 118.372 112.544 118.109C111.646 117.845 110.532 117.713 109.204 117.713H105.425V127.044ZM121.787 128.377V106.961H123.296V116.366H127.339C128.979 116.366 130.342 116.576 131.426 116.996C132.52 117.415 133.335 118.055 133.872 118.914C134.409 119.774 134.678 120.872 134.678 122.21C134.678 124.203 134.087 125.731 132.905 126.795C131.733 127.85 129.99 128.377 127.676 128.377H121.787ZM123.296 127.044H127.456C129.38 127.044 130.806 126.659 131.733 125.887C132.661 125.106 133.125 123.88 133.125 122.21C133.125 121.048 132.891 120.14 132.422 119.486C131.953 118.831 131.274 118.377 130.386 118.123C129.497 117.86 128.413 117.728 127.134 117.728H123.296V127.044ZM137.695 128.377V106.961H139.204V128.377H137.695ZM151.436 128.377H149.912V108.324H142.969V106.961H158.379V108.324H151.436V128.377Z" fill="black"/>
</svg>
